<svg width="40" height="40" viewBox="0 0 40 40" fill="none" xmlns="http://www.w3.org/2000/svg">
<path d="M20.0001 6.4001C27.5201 6.4001 33.6001 12.4801 33.6001 20.0001C33.6001 27.5201 27.5201 33.6001 20.0001 33.6001C12.4801 33.6001 6.4001 27.5201 6.4001 20.0001C6.4001 12.4801 12.4801 6.4001 20.0001 6.4001ZM20.0001 32.0001C26.6401 32.0001 32.0001 26.6401 32.0001 20.0001C32.0001 13.3601 26.6401 8.0001 20.0001 8.0001C13.3601 8.0001 8.0001 13.3601 8.0001 20.0001C8.0001 26.6401 13.3601 32.0001 20.0001 32.0001Z" fill="#2AD8F6"/>
<path d="M13.3598 18.64L19.9998 25.28L26.6398 18.64L27.7598 19.76L19.9998 27.52L12.2398 19.76L13.3598 18.64Z" fill="#2AD8F6"/>
<path d="M20.7998 26.3999H19.1998V12.7999H20.7998V26.3999Z" fill="#2AD8F6"/>
</svg>
