<svg width="40" height="40" viewBox="0 0 40 40" fill="none" xmlns="http://www.w3.org/2000/svg">
<path d="M30.8984 17.2454C31.4323 18.3565 31.8294 19.5139 32.0898 20.7176C32.3503 21.9213 32.487 23.1636 32.5 24.4444V26.8287L20 34.2593L7.5 26.8287C7.5 25.9028 7.50651 25.0386 7.51953 24.2361C7.53255 23.4336 7.59115 22.6543 7.69531 21.8981C7.79948 21.142 7.95573 20.3858 8.16406 19.6296C8.3724 18.8735 8.6849 18.0787 9.10156 17.2454L5 14.8148V28.4028C5.3776 28.5571 5.71615 28.7731 6.01563 29.0509C6.3151 29.3287 6.58203 29.6528 6.81641 30.0231C7.05078 30.3935 7.22005 30.7948 7.32422 31.2269C7.42839 31.6589 7.48698 32.1142 7.5 32.5926V40H0V32.5926C0 32.1296 0.0585938 31.6821 0.175781 31.25C0.292969 30.8179 0.46224 30.4089 0.683594 30.0231C0.904948 29.6373 1.16536 29.3133 1.46484 29.0509C1.76432 28.7886 2.10938 28.5725 2.5 28.4028V13.3333L0 11.8519L20 0L40 11.8519L30.8984 17.2454ZM5 32.5926C5 32.1914 4.8763 31.8441 4.62891 31.5509C4.38151 31.2577 4.08854 31.1111 3.75 31.1111C3.41146 31.1111 3.11849 31.2577 2.87109 31.5509C2.6237 31.8441 2.5 32.1914 2.5 32.5926V37.037H5V32.5926ZM5.58594 11.8519L20 20.3935L34.4141 11.8519L20 3.31019L5.58594 11.8519ZM30 25C30 23.8117 29.9023 22.7083 29.707 21.6898C29.5117 20.6713 29.1667 19.6296 28.6719 18.5648L20 23.7037L11.3281 18.5648C10.8984 19.4599 10.5729 20.4012 10.3516 21.3889C10.1302 22.3765 10.013 23.3951 10 24.4444V25L20 30.9259L30 25Z" fill="white"/>
</svg>
