<svg width="50" height="48" viewBox="0 0 50 48" fill="none" xmlns="http://www.w3.org/2000/svg">
<g clip-path="url(#clip0_4016_191)">
<path d="M14.6332 5.35199C16.1977 5.85017 17.686 6.53883 19.0602 7.4004C21.001 6.93414 22.9967 6.6999 24.9998 6.70324C27.0686 6.70324 29.0644 6.94607 30.9352 7.39844C32.3089 6.53771 33.7966 5.84971 35.3602 5.35199C36.8123 4.88786 38.8811 4.13586 40.1102 5.41465C40.9436 6.28415 41.1519 7.74115 41.2998 8.85349C41.4665 10.0951 41.5061 11.7127 41.0686 13.3185C42.7415 15.3493 43.7498 17.7717 43.7498 20.4116C43.7498 24.4105 41.4457 27.8826 38.0352 30.2874C36.3939 31.4302 34.5736 32.3261 32.6394 32.9429C33.0852 33.9025 33.3332 34.9639 33.3332 36.0782V41.9532C33.3332 42.4726 33.1137 42.9707 32.723 43.338C32.3323 43.7052 31.8024 43.9116 31.2498 43.9116H18.7498C18.1973 43.9116 17.6674 43.7052 17.2767 43.338C16.886 42.9707 16.6665 42.4726 16.6665 41.9532V40.0125C14.6769 40.2417 13.0082 40.038 11.5894 39.472C10.1061 38.8806 9.07274 37.9641 8.29566 37.0868C7.55816 36.2564 6.75399 34.3843 5.59149 34.02C5.33186 33.9388 5.0918 33.8102 4.88501 33.6417C4.67822 33.4733 4.50876 33.2682 4.38631 33.0381C4.13899 32.5735 4.09814 32.0356 4.27274 31.5427C4.44734 31.0498 4.82309 30.6423 5.31733 30.4099C5.81157 30.1774 6.3838 30.139 6.90816 30.3031C8.29566 30.7379 9.19983 31.6779 9.81858 32.4338C10.8186 33.6479 11.6311 35.2342 13.2144 35.8667C13.8665 36.1272 14.8227 36.2976 16.3186 36.1057L16.6665 36.0391C16.6705 34.9733 16.9066 33.9196 17.3602 32.9429C15.426 32.3261 13.6057 31.4302 11.9644 30.2874C8.55399 27.8826 6.24983 24.4124 6.24983 20.4116C6.24983 17.7757 7.25608 15.3552 8.92483 13.3263C8.48733 11.7205 8.52483 10.099 8.69149 8.85544L8.70191 8.78103C8.85399 7.64128 9.03108 6.29982 9.88108 5.41465C11.1102 4.13586 13.1811 4.88982 14.6311 5.35394L14.6332 5.35199Z" fill="#EEF3F9"/>
</g>
<defs>
<clipPath id="clip0_4016_191">
<rect width="50" height="47" fill="white" transform="translate(0 0.828125)"/>
</clipPath>
</defs>
</svg>
