<svg width="42" height="35" viewBox="0 0 42 35" fill="none" xmlns="http://www.w3.org/2000/svg">
<g clip-path="url(#clip0_2077_190)">
<path d="M12.8332 16.0417L11.6665 19.0556H13.9998L12.8332 16.0417Z" fill="white"/>
<path d="M35.3498 2.91675H16.6831V7.77786H21.3498V9.7223H6.18311C4.19977 9.7223 2.68311 10.9862 2.68311 12.639V23.3334C2.68311 24.9862 4.19977 26.2501 6.18311 26.2501H7.34977V31.2084L14.6998 26.2501H22.5164V19.4445H35.3498C37.3331 19.4445 38.8498 18.1806 38.8498 16.5279V5.83341C38.8498 4.18064 37.3331 2.91675 35.3498 2.91675ZM15.2831 22.264L14.6998 20.7084H11.0831L10.3831 22.264H7.58311L11.4331 13.6112H14.2331L18.0831 22.264H15.2831ZM33.0164 14.5834V16.5279C31.4998 16.5279 29.8664 16.139 28.4664 15.5556C27.0664 16.139 25.4331 16.4306 23.7998 16.5279L23.6831 14.5834C24.4998 14.5834 25.3164 14.4862 26.1331 14.2917C25.0831 13.4167 24.3831 12.3473 24.0331 11.1806H26.4831C26.8331 12.0556 27.5331 12.7362 28.3498 13.3195C29.6331 12.4445 30.4498 11.1806 30.5664 9.7223H23.5664V7.77786H27.0664V5.83341H29.3998V7.77786H33.2498L33.3664 8.75008C33.4831 10.7917 32.5498 12.8334 30.7998 14.2917C31.6164 14.4862 32.3164 14.5834 33.0164 14.5834Z" fill="white"/>
</g>
<defs>
<clipPath id="clip0_2077_190">
<rect width="42" height="35" fill="white"/>
</clipPath>
</defs>
</svg>
