<svg width="56" height="56" viewBox="0 0 56 56" fill="none" xmlns="http://www.w3.org/2000/svg">
<g filter="url(#filter0_d_4016_229)">
<path d="M48.1406 0.000180469H7.51562C6.59387 -0.00920031 5.70604 0.347463 5.04695 0.991911C4.38785 1.63636 4.01133 2.51595 4 3.43768V44.2267C4.01338 45.1471 4.39081 46.0247 5.04968 46.6675C5.70855 47.3102 6.59521 47.6658 7.51562 47.6564H48.1406C49.0624 47.6637 49.9497 47.3059 50.6084 46.661C51.2672 46.0162 51.6439 45.1368 51.6562 44.215V3.42596C51.6398 2.50693 51.2613 1.63154 50.603 0.990047C49.9447 0.348558 49.0598 -0.00717174 48.1406 0.000180469Z" fill="#EEF3F9"/>
<path d="M11.0547 17.8633H18.1289V40.625H11.0547V17.8633ZM14.5938 6.53516C15.4051 6.53516 16.1983 6.77581 16.8729 7.22667C17.5474 7.67752 18.0732 8.31833 18.3835 9.06802C18.6938 9.81771 18.7748 10.6426 18.6162 11.4383C18.4576 12.2341 18.0666 12.9649 17.4926 13.5383C16.9186 14.1118 16.1874 14.5021 15.3915 14.6599C14.5956 14.8178 13.7708 14.736 13.0214 14.4249C12.272 14.1139 11.6317 13.5876 11.1815 12.9126C10.7313 12.2376 10.4914 11.4442 10.4922 10.6328C10.4932 9.54569 10.9258 8.50344 11.6949 7.73509C12.464 6.96675 13.5066 6.53516 14.5938 6.53516ZM22.5664 17.8633H29.3477V20.9883H29.4414C30.3867 19.1992 32.6914 17.3125 36.1328 17.3125C43.2969 17.2969 44.625 22.0117 44.625 28.125V40.625H37.5508V29.5508C37.5508 26.9141 37.5039 23.5195 33.875 23.5195C30.2461 23.5195 29.6289 26.3945 29.6289 29.3789V40.625H22.5664V17.8633Z" fill="#0F1A27"/>
</g>
<defs>
<filter id="filter0_d_4016_229" x="0" y="0" width="55.6562" height="55.6567" filterUnits="userSpaceOnUse" color-interpolation-filters="sRGB">
<feFlood flood-opacity="0" result="BackgroundImageFix"/>
<feColorMatrix in="SourceAlpha" type="matrix" values="0 0 0 0 0 0 0 0 0 0 0 0 0 0 0 0 0 0 127 0" result="hardAlpha"/>
<feOffset dy="4"/>
<feGaussianBlur stdDeviation="2"/>
<feComposite in2="hardAlpha" operator="out"/>
<feColorMatrix type="matrix" values="0 0 0 0 0 0 0 0 0 0 0 0 0 0 0 0 0 0 0.25 0"/>
<feBlend mode="normal" in2="BackgroundImageFix" result="effect1_dropShadow_4016_229"/>
<feBlend mode="normal" in="SourceGraphic" in2="effect1_dropShadow_4016_229" result="shape"/>
</filter>
</defs>
</svg>
