<svg width="40" height="40" viewBox="0 0 40 40" fill="none" xmlns="http://www.w3.org/2000/svg">
<path d="M2.10526 31.9667V33.3333V8.88889V31.9667ZM3.4 35.5556C2.43158 35.5556 1.62316 35.2133 0.974737 34.5289C0.324912 33.843 0 32.9889 0 31.9667V10.2556C0 9.23333 0.324912 8.38 0.974737 7.69556C1.62316 7.00963 2.43158 6.66667 3.4 6.66667H12.6316V3.58889C12.6316 2.56667 12.9565 1.71333 13.6063 1.02889C14.2547 0.342963 15.0632 0 16.0316 0H21.8632C22.8316 0 23.6407 0.342963 24.2905 1.02889C24.9389 1.71333 25.2632 2.56667 25.2632 3.58889V6.66667H34.4947C35.4632 6.66667 36.2716 7.00963 36.92 7.69556C37.5698 8.38 37.8947 9.23333 37.8947 10.2556V19.5844C37.5607 19.3607 37.2246 19.1652 36.8863 18.9978C36.5495 18.8319 36.1839 18.6763 35.7895 18.5311V10.2533C35.7895 9.85482 35.6681 9.52741 35.4253 9.27111C35.1825 9.01482 34.8723 8.88741 34.4947 8.88889H3.4C3.02246 8.88889 2.71228 9.01704 2.46947 9.27333C2.22667 9.52963 2.10526 9.85704 2.10526 10.2556V31.9667C2.10526 32.3652 2.22667 32.6926 2.46947 32.9489C2.71228 33.2052 3.02246 33.3333 3.4 33.3333H19.1053C19.1839 33.7407 19.2681 34.1222 19.3579 34.4778C19.4463 34.8333 19.5537 35.1926 19.68 35.5556H3.4ZM14.7368 6.66667H23.1579V3.58889C23.1579 3.19037 23.0365 2.86296 22.7937 2.60667C22.5509 2.35037 22.2407 2.22222 21.8632 2.22222H16.0316C15.654 2.22222 15.3439 2.35037 15.1011 2.60667C14.8582 2.86296 14.7368 3.19037 14.7368 3.58889V6.66667ZM31.5789 40C29.2337 40 27.2435 39.1378 25.6084 37.4133C23.9733 35.6889 23.1565 33.5881 23.1579 31.1111C23.1579 28.6356 23.9747 26.5348 25.6084 24.8089C27.2421 23.083 29.2323 22.2207 31.5789 22.2222C33.9242 22.2222 35.9144 23.0844 37.5495 24.8089C39.1846 26.5333 40.0014 28.6341 40 31.1111C40 33.5867 39.1832 35.6874 37.5495 37.4133C35.9158 39.1393 33.9256 40.0015 31.5789 40ZM31.5789 36.88L36.9221 31.24L35.7726 30.0267L32.3895 33.5978V25.3422H30.7684V33.5978L27.3853 30.0267L26.2358 31.24L31.5789 36.88Z" fill="white"/>
</svg>
